<svg width="222" height="292" viewBox="0 0 222 292" fill="none" xmlns="http://www.w3.org/2000/svg">
<g filter="url(#filter0_d_320_482)">
<rect x="28" y="18" width="162" height="232" rx="8" fill="url(#paint0_linear_320_482)"/>
<rect x="28.5" y="18.5" width="161" height="231" rx="7.5" stroke="url(#paint1_linear_320_482)" stroke-opacity="0.15"/>
<g filter="url(#filter1_f_320_482)">
<path fill-rule="evenodd" clip-rule="evenodd" d="M36 19C32.134 19 29 22.134 29 26V242C29 245.866 32.134 249 36 249H182C185.866 249 189 245.866 189 242V26C189 22.134 185.866 19 182 19H36ZM41 29C39.8954 29 39 29.8954 39 31V237C39 238.105 39.8954 239 41 239H177C178.105 239 179 238.105 179 237V31C179 29.8954 178.105 29 177 29H41Z" fill="url(#paint2_linear_320_482)" fill-opacity="0.85"/>
</g>
<path d="M94.3786 200H92.4889V191.064H89.237V189.431H97.6379V191.064H94.3786V200ZM101.899 193.269C101.357 193.269 100.91 193.447 100.559 193.804C100.207 194.16 100.012 194.631 99.9727 195.217H103.745C103.725 194.622 103.549 194.148 103.217 193.796C102.885 193.445 102.446 193.269 101.899 193.269ZM103.759 197.795H105.481C105.31 198.528 104.907 199.106 104.272 199.531C103.642 199.951 102.858 200.161 101.921 200.161C100.744 200.161 99.8189 199.795 99.1451 199.062C98.4762 198.325 98.1417 197.312 98.1417 196.023C98.1417 194.734 98.4786 193.713 99.1524 192.961C99.8263 192.205 100.744 191.826 101.906 191.826C103.049 191.826 103.942 192.185 104.587 192.903C105.236 193.616 105.561 194.604 105.561 195.869V196.455H99.9654V196.55C99.9898 197.219 100.18 197.749 100.537 198.14C100.898 198.525 101.377 198.718 101.972 198.718C102.89 198.718 103.486 198.411 103.759 197.795ZM109.537 196.558H109.17V200H107.354V191.987H109.17V195.195H109.522L112.21 191.987H114.305L111.016 195.686L114.458 200H112.254L109.537 196.558ZM122.477 194.683H120.748C120.661 194.277 120.465 193.955 120.163 193.716C119.86 193.472 119.467 193.35 118.983 193.35C118.358 193.35 117.87 193.579 117.518 194.038C117.172 194.497 116.998 195.142 116.998 195.972C116.998 196.812 117.174 197.466 117.526 197.935C117.877 198.403 118.363 198.638 118.983 198.638C119.457 198.638 119.845 198.528 120.148 198.308C120.455 198.088 120.656 197.771 120.748 197.356H122.477C122.374 198.21 122.016 198.892 121.4 199.399C120.79 199.907 119.987 200.161 118.991 200.161C117.785 200.161 116.845 199.792 116.171 199.055C115.497 198.318 115.16 197.29 115.16 195.972C115.16 194.668 115.497 193.652 116.171 192.925C116.845 192.192 117.782 191.826 118.983 191.826C119.989 191.826 120.797 192.087 121.408 192.61C122.023 193.127 122.379 193.818 122.477 194.683ZM129.975 191.987V193.438H127.507V200H125.691V193.438H123.222V191.987H129.975ZM96.5026 209.987V211.438H94.0343V218H92.2179V211.438H89.7497V209.987H96.5026ZM101.174 211.269C100.632 211.269 100.185 211.447 99.8336 211.804C99.482 212.16 99.2867 212.631 99.2476 213.217H103.02C103 212.622 102.824 212.148 102.492 211.796C102.16 211.445 101.721 211.269 101.174 211.269ZM103.034 215.795H104.755C104.585 216.528 104.182 217.106 103.547 217.531C102.917 217.951 102.133 218.161 101.196 218.161C100.019 218.161 99.0938 217.795 98.42 217.062C97.7511 216.325 97.4166 215.312 97.4166 214.023C97.4166 212.734 97.7535 211.713 98.4273 210.961C99.1012 210.205 100.019 209.826 101.181 209.826C102.324 209.826 103.217 210.185 103.862 210.903C104.511 211.616 104.836 212.604 104.836 213.869V214.455H99.2403V214.55C99.2647 215.219 99.4552 215.749 99.8116 216.14C100.173 216.525 100.651 216.718 101.247 216.718C102.165 216.718 102.761 216.411 103.034 215.795ZM108.812 214.558H108.445V218H106.629V209.987H108.445V213.195H108.797L111.485 209.987H113.58L110.291 213.686L113.733 218H111.529L108.812 214.558ZM121.752 212.683H120.023C119.935 212.277 119.74 211.955 119.437 211.716C119.135 211.472 118.742 211.35 118.258 211.35C117.633 211.35 117.145 211.579 116.793 212.038C116.447 212.497 116.273 213.142 116.273 213.972C116.273 214.812 116.449 215.466 116.801 215.935C117.152 216.403 117.638 216.638 118.258 216.638C118.732 216.638 119.12 216.528 119.423 216.308C119.73 216.088 119.931 215.771 120.023 215.356H121.752C121.649 216.21 121.29 216.892 120.675 217.399C120.065 217.907 119.262 218.161 118.266 218.161C117.059 218.161 116.12 217.792 115.446 217.055C114.772 216.318 114.435 215.29 114.435 213.972C114.435 212.668 114.772 211.652 115.446 210.925C116.12 210.192 117.057 209.826 118.258 209.826C119.264 209.826 120.072 210.087 120.683 210.61C121.298 211.127 121.654 211.818 121.752 212.683ZM129.25 209.987V211.438H126.782V218H124.966V211.438H122.497V209.987H129.25Z" fill="white"/>
<path d="M98.8761 238.176C97.9347 238.176 97.2003 237.789 96.673 237.016C96.1495 236.238 95.8878 235.156 95.8878 233.77C95.8878 232.395 96.1515 231.318 96.6788 230.541C97.2101 229.76 97.9425 229.369 98.8761 229.369C99.8058 229.369 100.532 229.76 101.056 230.541C101.583 231.322 101.847 232.402 101.847 233.781C101.847 235.164 101.585 236.242 101.062 237.016C100.538 237.789 99.8097 238.176 98.8761 238.176ZM97.2706 236.5C97.6534 237.148 98.1886 237.473 98.8761 237.473C99.5636 237.473 100.097 237.148 100.476 236.5C100.855 235.852 101.044 234.941 101.044 233.77C101.044 232.605 100.853 231.699 100.47 231.051C100.091 230.402 99.5597 230.078 98.8761 230.078C98.1925 230.078 97.6573 230.404 97.2706 231.057C96.8878 231.705 96.6964 232.609 96.6964 233.77C96.6964 234.941 96.8878 235.852 97.2706 236.5ZM106.218 238.176C105.276 238.176 104.542 237.789 104.015 237.016C103.491 236.238 103.23 235.156 103.23 233.77C103.23 232.395 103.493 231.318 104.021 230.541C104.552 229.76 105.284 229.369 106.218 229.369C107.148 229.369 107.874 229.76 108.398 230.541C108.925 231.322 109.189 232.402 109.189 233.781C109.189 235.164 108.927 236.242 108.403 237.016C107.88 237.789 107.151 238.176 106.218 238.176ZM104.612 236.5C104.995 237.148 105.53 237.473 106.218 237.473C106.905 237.473 107.439 237.148 107.817 236.5C108.196 235.852 108.386 234.941 108.386 233.77C108.386 232.605 108.194 231.699 107.812 231.051C107.433 230.402 106.901 230.078 106.218 230.078C105.534 230.078 104.999 230.404 104.612 231.057C104.23 231.705 104.038 232.609 104.038 233.77C104.038 234.941 104.23 235.852 104.612 236.5ZM113.56 238.176C112.618 238.176 111.884 237.789 111.356 237.016C110.833 236.238 110.571 235.156 110.571 233.77C110.571 232.395 110.835 231.318 111.362 230.541C111.894 229.76 112.626 229.369 113.56 229.369C114.489 229.369 115.216 229.76 115.739 230.541C116.267 231.322 116.53 232.402 116.53 233.781C116.53 235.164 116.269 236.242 115.745 237.016C115.222 237.789 114.493 238.176 113.56 238.176ZM111.954 236.5C112.337 237.148 112.872 237.473 113.56 237.473C114.247 237.473 114.78 237.148 115.159 236.5C115.538 235.852 115.727 234.941 115.727 233.77C115.727 232.605 115.536 231.699 115.153 231.051C114.774 230.402 114.243 230.078 113.56 230.078C112.876 230.078 112.341 230.404 111.954 231.057C111.571 231.705 111.38 232.609 111.38 233.77C111.38 234.941 111.571 235.852 111.954 236.5ZM119.8 230.26V233.934H121.352C121.997 233.934 122.495 233.77 122.847 233.441C123.198 233.113 123.374 232.666 123.374 232.1C123.374 231.529 123.198 231.08 122.847 230.752C122.495 230.424 121.997 230.26 121.352 230.26H119.8ZM122.284 236.488H119.8V238H118.997V236.488H117.825V235.867H118.997V234.637H117.825V233.934H118.997V229.545H121.54C122.337 229.545 122.977 229.781 123.462 230.254C123.95 230.727 124.194 231.342 124.194 232.1C124.194 232.854 123.95 233.465 123.462 233.934C122.977 234.402 122.335 234.637 121.534 234.637H119.8V235.867H122.284V236.488Z" fill="white"/>
</g>
<defs>
<filter id="filter0_d_320_482" x="0" y="0" width="222" height="292" filterUnits="userSpaceOnUse" color-interpolation-filters="sRGB">
<feFlood flood-opacity="0" result="BackgroundImageFix"/>
<feColorMatrix in="SourceAlpha" type="matrix" values="0 0 0 0 0 0 0 0 0 0 0 0 0 0 0 0 0 0 127 0" result="hardAlpha"/>
<feOffset dx="2" dy="12"/>
<feGaussianBlur stdDeviation="15"/>
<feComposite in2="hardAlpha" operator="out"/>
<feColorMatrix type="matrix" values="0 0 0 0 0 0 0 0 0 0 0 0 0 0 0 0 0 0 0.9 0"/>
<feBlend mode="normal" in2="BackgroundImageFix" result="effect1_dropShadow_320_482"/>
<feBlend mode="normal" in="SourceGraphic" in2="effect1_dropShadow_320_482" result="shape"/>
</filter>
<filter id="filter1_f_320_482" x="23" y="13" width="172" height="242" filterUnits="userSpaceOnUse" color-interpolation-filters="sRGB">
<feFlood flood-opacity="0" result="BackgroundImageFix"/>
<feBlend mode="normal" in="SourceGraphic" in2="BackgroundImageFix" result="shape"/>
<feGaussianBlur stdDeviation="3" result="effect1_foregroundBlur_320_482"/>
</filter>
<linearGradient id="paint0_linear_320_482" x1="105.5" y1="18" x2="114" y2="250" gradientUnits="userSpaceOnUse">
<stop stop-color="#1C2024"/>
<stop offset="1" stop-color="#161A1D"/>
</linearGradient>
<linearGradient id="paint1_linear_320_482" x1="109" y1="18" x2="109.038" y2="250.001" gradientUnits="userSpaceOnUse">
<stop stop-color="#202428"/>
<stop offset="1" stop-color="#1C2024"/>
</linearGradient>
<linearGradient id="paint2_linear_320_482" x1="101" y1="19" x2="179.643" y2="221.575" gradientUnits="userSpaceOnUse">
<stop stop-color="#161A1D"/>
<stop offset="1" stop-color="#1E2226"/>
</linearGradient>
</defs>
</svg>
